<?xml version="1.0" standalone="no"?>
<!DOCTYPE svg PUBLIC "-//W3C//DTD SVG 20010904//EN"
 "http://www.w3.org/TR/2001/REC-SVG-20010904/DTD/svg10.dtd">
<svg fill="#4089e9" version="1.0" xmlns="http://www.w3.org/2000/svg"
 width="1280.000000pt" height="1280.000000pt" viewBox="0 0 1280.000000 1280.000000"
 preserveAspectRatio="xMidYMid meet">
<metadata>
Created by potrace 1.16, written by Peter Selinger 2001-2019
</metadata>
<g transform="translate(0.000000,1280.000000) scale(0.100000,-0.100000)"
fill="#000000" stroke="none">
<path fill="#ffffff" d="M2180 6400 c0 -5725 2 -6402 15 -6396 19 7 8424 6389 8424 6396 0 7
-8405 6389 -8424 6396 -13 6 -15 -671 -15 -6396z m4048 2625 c1898 -1441 3451
-2622 3451 -2625 0 -5 -6888 -5237 -6915 -5253 -12 -7 -14 770 -14 5253 0
4466 2 5260 14 5253 7 -4 1566 -1187 3464 -2628z"/>
</g>
</svg>
